
<svg version="1.0" xmlns="http://www.w3.org/2000/svg"
width="110" height="40" viewBox="0 0 1626 346">

<g transform="translate(0.000000,276.000000) scale(0.100000,-0.100000)"
fill="#000000" stroke="none">
<path d="M2525 2740 c-27 -4 -67 -15 -89 -24 -36 -15 -38 -18 -30 -48 7 -29
10 -2028 3 -2117 -7 -93 175 -139 351 -88 52 15 49 6 75 207 19 144 59 324
113 495 41 133 48 131 51 -12 3 -184 44 -406 94 -517 30 -66 88 -131 141 -159
62 -33 190 -30 268 5 56 26 157 115 189 167 15 24 15 24 38 -37 26 -73 72
-136 126 -174 33 -24 62 -31 173 -48 73 -10 148 -17 165 -13 98 19 182 96 245
223 l37 76 42 -58 c51 -69 129 -123 200 -139 67 -15 163 6 229 51 56 39 119
118 150 189 l24 54 31 -61 c63 -127 176 -194 329 -193 137 0 247 50 322 148
l27 35 16 -34 c54 -106 149 -190 259 -229 124 -43 298 -43 422 0 81 29 188
104 242 171 45 56 107 176 136 264 23 67 54 254 67 400 14 159 17 166 73 166
70 0 70 0 56 -242 -22 -403 21 -617 147 -727 85 -76 223 -92 329 -38 131 66
240 272 276 523 15 103 2 156 -42 179 -36 19 -54 19 -90 0 -36 -18 -54 -67
-75 -205 -29 -180 -75 -300 -130 -336 -23 -15 -27 -15 -48 -1 -41 27 -52 92
-52 302 1 209 12 291 65 453 17 52 31 119 33 149 2 49 -1 57 -26 79 -37 32
-80 42 -233 53 -72 6 -143 15 -159 21 -27 10 -28 11 -21 75 11 107 -24 155
-114 155 -52 0 -158 -39 -189 -70 l-30 -30 6 -233 c6 -249 -6 -458 -33 -579
-44 -200 -155 -322 -304 -335 -135 -13 -225 70 -246 225 l-7 52 40 0 c52 0
137 25 192 57 103 60 185 165 236 303 39 106 47 279 16 360 -29 79 -71 124
-149 162 -64 32 -72 33 -182 33 -106 0 -119 -2 -173 -29 -76 -37 -162 -122
-216 -212 -49 -84 -105 -235 -122 -331 -7 -37 -21 -78 -30 -91 -10 -13 -21
-44 -24 -70 -24 -180 -68 -310 -120 -350 -38 -30 -95 -30 -121 0 -45 51 -48
73 -52 318 -3 244 9 385 42 481 22 63 20 92 -10 122 -43 43 -115 62 -239 62
-87 0 -117 -4 -144 -18 -36 -20 -37 -30 -12 -122 6 -23 11 -143 11 -282 l0
-243 -25 0 c-63 0 -89 -43 -130 -210 -26 -109 -45 -147 -85 -167 -63 -32 -92
40 -98 243 -4 129 -1 168 18 262 25 127 22 138 -42 174 l-43 23 -6 130 c-8
171 -26 231 -87 295 -40 41 -59 52 -122 70 -41 12 -119 35 -172 52 -84 26
-108 30 -175 26 -245 -15 -393 -252 -444 -712 -10 -89 -16 -112 -34 -131 -14
-13 -28 -45 -35 -81 -36 -185 -80 -292 -133 -325 -44 -26 -93 -25 -111 4 -47
73 -66 270 -47 481 11 116 37 286 56 357 5 20 -1 34 -30 69 -20 24 -45 60 -55
81 -24 46 -88 79 -168 86 l-58 5 -37 -43 c-44 -51 -127 -216 -196 -387 -27
-68 -52 -126 -56 -130 -9 -9 2 578 16 818 11 198 30 374 57 534 l19 108 -33
14 c-97 41 -200 52 -319 34z m1794 -1085 c38 -19 70 -96 77 -188 6 -70 5 -78
-25 -139 -32 -64 -33 -70 -41 -254 -13 -273 -45 -401 -117 -465 -29 -25 -42
-30 -76 -27 -37 3 -44 8 -63 42 -36 64 -49 156 -49 346 1 202 21 347 66 485
34 102 69 159 118 192 39 27 71 29 110 8z m2071 -90 c28 -34 8 -205 -36 -303
-30 -68 -56 -101 -102 -129 -53 -32 -82 -31 -82 5 0 83 47 277 86 353 39 77
102 112 134 74z" fill="var(--text-dark)"/>
<path d="M9133 2565 c-209 -58 -416 -244 -536 -480 -33 -67 -91 -242 -108
-330 -22 -111 -19 -422 5 -510 75 -279 246 -461 493 -526 56 -15 111 -21 198
-22 140 -1 218 16 312 68 l63 35 0 -93 c0 -128 -14 -201 -52 -277 -61 -119
-168 -175 -338 -175 -79 1 -102 4 -137 23 -53 28 -80 66 -96 138 l-14 59 -54
17 c-118 37 -209 10 -259 -75 -18 -31 -22 -49 -18 -97 13 -185 248 -291 617
-277 80 3 171 10 201 17 229 49 386 152 464 307 66 131 72 261 25 489 -28 136
-31 161 -26 284 4 101 11 160 31 234 14 54 23 102 21 107 -3 4 -36 15 -75 23
-119 27 -248 17 -294 -22 -34 -31 -49 -84 -57 -217 -13 -201 -47 -283 -134
-325 -39 -19 -58 -22 -118 -18 -161 11 -268 116 -324 318 -26 95 -26 434 1
575 38 201 95 332 183 416 58 56 98 78 166 89 147 23 191 -58 167 -310 -12
-132 -12 -140 7 -171 37 -65 123 -91 229 -69 49 10 67 20 106 59 61 61 80 125
80 267 -1 184 -41 262 -159 315 -34 15 -90 47 -124 69 -115 79 -160 94 -284
97 -73 2 -127 -2 -162 -12z" fill="var(--text-dark)"/>
<path d="M1420 2554 c-19 -2 -84 -9 -144 -14 -386 -38 -773 -156 -1003 -306
-131 -86 -235 -221 -263 -343 -26 -111 10 -243 79 -288 68 -46 176 -21 213 48
22 41 23 70 3 146 -40 153 6 226 218 347 78 44 257 119 314 131 l31 6 -14 -47
c-11 -38 -14 -151 -14 -593 0 -505 -9 -827 -25 -926 l-7 -41 100 -63 c196
-122 367 -181 525 -181 265 0 618 141 722 289 43 61 42 143 -3 257 -69 173
-129 234 -333 335 l-87 42 79 47 c106 64 188 131 289 236 176 183 247 342 216
477 -41 174 -257 341 -541 417 -78 21 -270 34 -355 24z m220 -224 c125 -15
214 -45 259 -86 54 -48 65 -80 59 -170 -4 -64 -12 -89 -52 -169 -106 -214
-377 -425 -566 -442 -100 -9 -94 -30 -100 384 -5 339 -7 361 -27 412 -13 30
-20 57 -18 59 19 19 319 27 445 12z m-117 -1111 c120 -61 257 -188 278 -259
25 -82 -41 -176 -165 -236 -120 -58 -251 -70 -309 -28 -37 26 -77 111 -83 175
-6 58 10 336 19 346 12 11 74 21 145 22 56 1 83 -4 115 -20z" fill="var(--text-dark)"/>
<path d="M5155 2252 c-90 -30 -135 -56 -135 -76 0 -7 23 -43 51 -80 63 -82
148 -140 227 -157 130 -27 292 21 292 86 0 33 -94 168 -140 200 -44 31 -124
55 -180 55 -19 0 -71 -13 -115 -28z" fill="var(--text-dark)"/>
<path d="M11440 1951 c-203 -62 -327 -300 -371 -708 -7 -62 -16 -113 -20 -113
-19 0 -41 -68 -60 -178 -33 -200 -78 -321 -134 -358 -23 -15 -27 -15 -48 -1
-41 27 -52 92 -52 302 1 209 12 291 65 453 17 52 31 119 33 149 2 49 -1 57
-26 79 -37 32 -80 42 -233 53 -72 6 -143 15 -159 21 -27 10 -28 11 -21 73 11
108 -24 157 -113 157 -53 0 -158 -39 -190 -70 l-30 -30 6 -238 c3 -145 1 -288
-6 -367 -7 -71 -14 -175 -18 -231 l-6 -100 29 -23 c23 -18 37 -22 68 -18 78
11 100 57 135 292 11 72 23 171 27 220 9 116 13 125 68 125 70 0 70 0 56 -242
-17 -320 3 -500 73 -631 61 -115 166 -175 291 -165 107 9 194 68 264 181 l30
48 25 -53 c28 -63 74 -119 122 -148 39 -24 277 -63 328 -53 98 19 182 96 245
223 l37 76 42 -58 c51 -69 129 -123 200 -139 98 -22 228 28 301 117 l30 36 12
-69 c6 -37 17 -75 23 -84 31 -42 182 -84 259 -73 73 11 85 24 93 101 15 157
80 432 129 543 15 34 15 30 16 -100 1 -370 43 -450 236 -450 128 0 164 20 164
92 0 63 114 471 150 537 4 7 10 -58 14 -145 11 -246 46 -377 125 -467 103
-117 328 -139 473 -46 150 97 267 333 256 520 -5 85 -23 109 -84 109 -68 0
-82 -21 -119 -175 -45 -190 -111 -290 -187 -283 -28 3 -36 10 -55 48 -33 65
-43 135 -43 285 0 170 28 343 71 436 31 67 31 67 13 104 -49 104 -243 184
-384 158 -34 -7 -50 -16 -66 -40 -29 -43 -104 -215 -167 -383 -28 -74 -54
-139 -59 -145 -4 -5 -8 79 -8 187 l0 196 -30 26 c-56 47 -179 68 -275 47 -38
-8 -57 -41 -126 -227 l-54 -148 -5 275 -5 274 -60 21 c-80 29 -195 48 -239 40
-61 -12 -67 -25 -64 -145 2 -58 -1 -218 -6 -354 -7 -200 -11 -250 -23 -254
-23 -9 -45 -62 -75 -183 -29 -118 -48 -156 -88 -177 -63 -32 -92 40 -98 243
-4 129 -1 168 18 262 25 127 22 138 -42 174 l-43 23 -6 130 c-8 171 -26 231
-87 295 -40 41 -59 52 -122 70 -41 12 -117 35 -167 51 -94 29 -195 37 -253 20z
m259 -296 c38 -19 70 -96 77 -188 6 -70 5 -78 -25 -139 -32 -64 -33 -70 -41
-254 -13 -273 -45 -401 -117 -465 -29 -25 -42 -30 -76 -27 -37 3 -44 8 -63 42
-36 64 -49 156 -49 346 1 202 21 347 66 485 34 102 69 159 118 192 39 27 71
29 110 8z" fill="var(--text-dark)"/>
</g>
</svg>
