<?xml version="1.0" standalone="no"?>
<!DOCTYPE svg PUBLIC "-//W3C//DTD SVG 20010904//EN"
 "http://www.w3.org/TR/2001/REC-SVG-20010904/DTD/svg10.dtd">
<svg version="1.0" xmlns="http://www.w3.org/2000/svg"
 width="1626.000000pt" height="346.000000pt" viewBox="0 0 1626.000000 346.000000"
 preserveAspectRatio="xMidYMid meet">

<g transform="translate(0.000000,346.000000) scale(0.100000,-0.100000)"
fill="#000000" stroke="none">
<path d="M2947 3436 c-69 -19 -73 -25 -53 -94 14 -53 16 -177 16 -1303 -1
-806 -4 -1260 -11 -1289 -22 -96 -22 -95 5 -127 16 -19 43 -35 73 -44 58 -16
177 -15 253 3 53 13 55 15 58 48 16 215 68 507 128 720 38 136 125 365 150
396 14 17 15 13 9 -56 -8 -109 12 -580 29 -685 30 -180 76 -286 154 -357 167
-150 425 -74 579 169 l47 74 27 -85 c61 -198 175 -306 320 -306 20 0 53 -7 72
-15 157 -65 323 79 444 383 l37 94 13 -56 c48 -212 234 -347 402 -291 28 9 74
34 101 56 80 63 181 220 215 334 l13 40 11 -45 c64 -243 247 -378 461 -340
129 23 235 96 312 214 31 48 39 55 44 40 32 -92 83 -175 148 -240 109 -108
226 -154 397 -154 114 0 179 13 264 54 129 61 227 158 299 296 65 125 79 187
203 927 7 39 46 58 105 50 74 -10 73 -5 58 -276 -29 -528 24 -817 179 -972
125 -125 307 -121 422 9 110 126 197 385 216 641 5 79 4 94 -12 111 -22 25
-57 26 -78 2 -9 -10 -30 -82 -47 -167 -73 -355 -159 -514 -273 -503 -145 14
-164 626 -32 1048 51 162 52 180 21 217 -44 52 -124 73 -355 93 -68 6 -130 15
-137 21 -9 8 -14 46 -16 121 -3 107 -4 112 -30 131 -25 19 -31 19 -85 7 -68
-15 -120 -39 -147 -69 -19 -21 -20 -29 -8 -264 21 -421 15 -566 -34 -817 -44
-221 -125 -349 -261 -413 -58 -27 -79 -31 -153 -31 -67 -1 -95 4 -132 21 -68
31 -130 94 -169 170 -30 59 -34 78 -37 160 l-4 93 31 -5 c17 -3 44 -7 60 -10
16 -2 58 0 93 6 180 28 315 169 382 401 29 101 51 279 43 358 -12 134 -94 253
-215 312 -61 30 -74 33 -162 33 -76 0 -104 -5 -143 -23 -228 -103 -379 -398
-433 -840 -25 -213 -69 -346 -143 -439 -87 -110 -213 -132 -276 -49 -50 65
-57 138 -52 501 5 344 15 432 60 539 34 78 11 121 -81 157 -76 29 -263 34
-304 7 l-26 -17 19 -62 c17 -55 19 -95 19 -438 l0 -378 -42 1 c-51 1 -57 -9
-88 -139 -37 -158 -110 -283 -174 -299 -42 -10 -92 17 -116 63 -40 80 -53 165
-54 351 0 160 3 185 29 289 26 103 27 116 14 140 -12 22 -68 62 -104 74 -6 2
-13 82 -17 188 -7 203 -19 260 -68 328 -36 50 -106 96 -158 106 -20 3 -82 27
-137 53 -94 44 -106 47 -200 50 -85 3 -109 1 -160 -19 -92 -34 -169 -117 -233
-249 -82 -169 -124 -350 -156 -675 -21 -206 -86 -462 -142 -552 -27 -43 -86
-103 -118 -120 -16 -8 -50 -16 -77 -17 -63 -1 -93 26 -120 113 -50 162 -38
567 27 921 31 169 32 156 -14 203 -23 23 -48 59 -57 80 -19 47 -59 72 -147 92
-91 21 -102 19 -141 -15 -83 -73 -204 -386 -312 -813 -21 -81 -39 -146 -41
-145 -1 2 2 226 7 498 11 641 40 1116 90 1504 23 175 25 166 -41 187 -54 18
-276 21 -333 5z m2157 -1340 c75 -31 119 -123 138 -284 11 -90 10 -94 -11
-108 -38 -27 -49 -67 -65 -234 -24 -249 -44 -385 -71 -487 -55 -209 -144 -313
-267 -313 -40 0 -50 5 -77 35 -64 73 -86 205 -86 515 1 205 4 265 22 366 37
206 102 373 175 451 57 61 170 89 242 59z m2441 -108 c27 -32 28 -35 22 -128
-16 -256 -123 -464 -260 -505 -70 -21 -84 -19 -104 11 -15 23 -16 36 -5 115
27 217 116 442 201 506 59 46 109 46 146 1z"/>
<path d="M9885 3212 c-45 -15 -107 -43 -139 -62 -84 -51 -232 -194 -305 -297
-276 -387 -367 -1008 -210 -1441 74 -205 211 -364 384 -447 125 -60 205 -78
350 -79 193 -1 329 48 459 166 l68 62 -5 -230 c-3 -174 -9 -243 -22 -289 -66
-232 -235 -347 -515 -348 -212 0 -331 85 -349 250 -6 55 -8 59 -41 70 -154 53
-282 -56 -256 -218 25 -158 189 -263 465 -300 118 -16 361 -6 473 20 304 70
505 253 564 517 27 125 16 302 -32 484 -36 138 -38 152 -37 295 0 173 19 262
78 373 19 36 31 70 27 74 -5 5 -40 20 -78 33 -124 44 -232 26 -287 -47 -31
-40 -57 -133 -57 -203 0 -242 -64 -392 -192 -454 -83 -39 -149 -47 -230 -27
-363 91 -499 430 -427 1061 27 234 98 457 188 589 135 200 409 281 532 157 20
-20 42 -54 48 -76 14 -53 14 -168 -1 -338 -11 -132 -11 -141 7 -175 31 -54 76
-74 158 -69 163 11 232 134 232 417 0 212 -36 284 -170 346 -38 17 -121 66
-183 108 -135 90 -181 106 -316 106 -83 0 -115 -5 -181 -28z"/>
<path d="M1647 3199 c-298 -24 -626 -94 -897 -190 -495 -176 -768 -454 -747
-761 9 -128 70 -228 140 -228 40 0 86 32 107 74 24 50 25 93 5 160 -27 90 -30
176 -7 228 41 94 195 215 411 323 111 55 278 116 355 130 l38 6 -7 -33 c-4
-18 -10 -438 -15 -933 -7 -803 -15 -1063 -35 -1126 -10 -31 87 -109 215 -174
185 -94 511 -150 689 -119 198 34 424 134 535 235 128 117 148 208 88 386 -35
102 -81 201 -118 250 -52 68 -246 177 -408 228 -15 4 -1 15 60 45 283 142 586
503 650 777 25 106 15 196 -30 288 -30 60 -59 98 -144 183 -122 123 -192 168
-327 211 -154 50 -308 61 -558 40z m432 -234 c164 -37 251 -89 292 -172 34
-68 32 -187 -4 -298 -83 -254 -352 -527 -636 -646 -66 -28 -91 -33 -188 -37
-81 -3 -117 -1 -128 8 -13 11 -15 76 -15 474 0 255 -5 492 -10 531 -6 40 -21
87 -35 111 -14 24 -25 46 -25 49 0 4 152 5 338 2 268 -4 352 -8 411 -22z
m-250 -1439 c155 -77 316 -213 360 -302 27 -53 25 -118 -5 -175 -65 -127 -312
-249 -534 -265 -65 -5 -81 -3 -120 18 -56 29 -95 85 -116 168 -14 55 -16 98
-11 280 4 118 10 232 13 252 7 42 11 44 152 58 127 14 181 6 261 -34z"/>
<path d="M6061 2825 c-71 -26 -114 -54 -119 -77 -4 -20 110 -162 161 -199 84
-62 170 -84 268 -68 78 13 128 35 141 64 8 19 2 36 -42 109 -28 47 -71 103
-95 124 -83 73 -199 90 -314 47z"/>
<path d="M12560 2418 c-87 -34 -166 -120 -228 -248 -86 -178 -128 -366 -156
-700 -33 -393 -134 -707 -247 -766 -74 -38 -123 0 -153 120 -57 228 -31 628
59 916 51 162 52 180 21 217 -44 52 -124 73 -355 93 -68 6 -130 15 -137 21 -9
8 -14 46 -16 121 -3 107 -4 112 -30 131 -25 19 -31 19 -85 7 -68 -15 -120 -39
-147 -69 -19 -21 -19 -29 -6 -300 16 -335 9 -525 -25 -725 -37 -221 -35 -236
37 -236 49 0 63 21 89 141 18 81 119 659 119 679 0 16 62 32 102 27 74 -10 73
-5 58 -276 -23 -423 3 -658 93 -851 40 -85 124 -171 191 -193 121 -41 237 -10
321 86 39 45 108 168 129 232 5 14 14 -1 34 -61 62 -183 173 -284 313 -284 20
0 53 -7 72 -15 157 -65 323 79 444 383 l37 94 13 -56 c49 -218 242 -352 413
-287 30 11 76 39 102 61 55 48 145 179 181 265 l25 60 6 -35 c3 -19 7 -82 10
-140 2 -58 10 -136 16 -174 11 -59 16 -70 43 -87 69 -41 281 -65 341 -37 33
14 34 17 46 183 5 77 15 174 21 215 43 308 126 616 159 595 6 -4 10 -94 10
-218 0 -117 5 -277 10 -357 13 -206 36 -261 129 -303 75 -33 238 -23 263 16 4
7 8 26 8 42 1 73 91 426 152 595 28 80 148 343 153 338 2 -2 -3 -70 -11 -153
-23 -258 -15 -441 27 -603 42 -163 110 -264 216 -318 53 -26 67 -29 159 -29
l101 0 59 40 c69 48 130 123 184 226 78 150 146 403 133 498 -7 48 -35 67 -76
52 -30 -11 -40 -37 -71 -176 -49 -221 -115 -353 -196 -395 -75 -38 -125 -20
-158 58 -37 86 -46 166 -46 397 1 261 25 436 75 541 16 34 29 73 29 86 0 56
-95 144 -210 194 -58 25 -215 28 -230 4 -36 -57 -139 -322 -305 -783 -70 -194
-66 -186 -75 -162 -5 11 -9 182 -9 381 l-1 361 -22 20 c-52 47 -134 68 -228
58 -56 -6 -69 -11 -97 -41 -62 -66 -134 -252 -208 -538 -24 -92 -47 -171 -50
-174 -3 -3 -5 220 -5 496 l0 500 -32 11 c-107 34 -240 51 -282 35 -13 -5 -15
-34 -16 -202 0 -109 -4 -316 -10 -462 -5 -146 -10 -278 -10 -295 0 -28 -3 -30
-37 -30 -45 0 -53 -13 -83 -140 -37 -158 -110 -283 -174 -299 -42 -10 -92 17
-116 63 -40 80 -53 165 -54 351 0 160 3 185 29 289 26 103 27 116 14 140 -12
22 -68 62 -104 74 -6 2 -13 82 -17 188 -7 203 -19 260 -68 328 -36 50 -106 96
-158 106 -20 3 -82 27 -137 53 -97 45 -104 47 -205 49 -88 3 -114 0 -160 -19z
m354 -322 c75 -31 119 -123 138 -284 11 -90 10 -94 -11 -108 -38 -27 -49 -67
-65 -234 -24 -249 -44 -385 -71 -487 -55 -209 -144 -313 -267 -313 -40 0 -50
5 -77 35 -64 73 -86 205 -86 515 1 205 4 265 22 366 37 206 102 373 175 451
57 61 170 89 242 59z"/>
</g>
</svg>
